<svg width="240" height="240" viewBox="0 0 240 240" fill="none" xmlns="http://www.w3.org/2000/svg">
<path d="M125.1 132.14C125.56 124.14 129.48 117.08 135.4 112.08C141.609 106.918 149.445 104.119 157.52 104.18C166.02 104.18 173.83 107.18 179.63 112.08C185.55 117.08 189.46 124.14 189.91 132.13C190.36 140.36 187.06 147.99 181.26 153.66C174.865 159.751 166.351 163.115 157.52 163.04C148.682 163.12 140.16 159.756 133.76 153.66C127.96 147.99 124.65 140.36 125.1 132.14ZM73.4999 148.31C73.5599 151.45 74.5599 157.53 76.0599 162.29C79.3064 172.527 84.7422 181.935 91.9899 189.86C99.765 198.421 109.263 205.24 119.86 209.87C131.389 214.951 143.861 217.541 156.46 217.47C169.056 217.484 181.514 214.854 193.03 209.75C203.613 205.065 213.1 198.218 220.88 189.65C228.13 181.709 233.563 172.284 236.8 162.03C239.908 152.097 240.762 141.595 239.3 131.29C237.902 121.416 234.441 111.947 229.14 103.5C224.229 95.6442 217.958 88.7261 210.62 83.07H210.64L135.66 25.5L135.46 25.35C130.54 21.57 122.27 21.59 116.86 25.37C111.39 29.19 110.77 35.52 115.63 39.52L115.62 39.53L146.88 64.96L51.5799 65.06H51.4499C43.5699 65.07 35.9999 70.24 34.4999 76.78C32.9599 83.43 38.2999 88.95 46.4999 88.98V89L94.7999 88.9L8.59991 155.07L8.25991 155.32C0.129913 161.54 -2.49009 171.9 2.62991 178.45C7.82991 185.12 18.8799 185.13 27.0999 178.49L74.1399 140C74.1399 140 73.4399 145.2 73.4999 148.31ZM194.4 165.72C184.7 175.6 171.14 181.2 156.45 181.22C141.75 181.26 128.18 175.7 118.48 165.84C113.897 161.244 110.363 155.711 108.12 149.62C106.06 143.891 105.246 137.789 105.733 131.721C106.219 125.652 107.994 119.758 110.94 114.43C113.869 109.163 117.783 104.509 122.47 100.72C131.89 93.04 143.88 88.89 156.43 88.87C168.99 88.85 180.98 92.97 190.41 100.62C195.21 104.53 199.11 109.16 201.93 114.29C204.843 119.549 206.622 125.361 207.15 131.35C207.692 137.489 206.876 143.672 204.76 149.46C202.525 155.564 198.984 161.111 194.4 165.72Z" fill="#88BFCF"/>
</svg>
