<svg width="240" height="240" viewBox="0 0 240 240" fill="none" xmlns="http://www.w3.org/2000/svg">
<path d="M83.4227 10L67.6111 28.9666C52.2637 27.4073 36.9398 34.2349 28.1131 47.4786L24.8888 52.3132L36.0912 66.7758L27.431 77.1681C27.3892 77.2159 27.3479 77.2642 27.307 77.3127L24 81.2796L25.0748 85.9903C25.0812 86.0454 25.0881 86.1005 25.0954 86.1555L25.1575 86.3828C25.1642 86.4104 25.1711 86.4379 25.1781 86.4655L43.6767 168.427C45.1438 175.753 47.3095 181.456 50.7661 185.968C54.2226 190.48 58.2107 193.014 61.7205 195.348L108.391 226.463V226.442C115.479 231.18 124.783 231.185 131.87 226.463L178.54 195.348C182.044 193.015 186.062 190.479 189.515 185.968C192.969 181.457 195.117 175.753 196.584 168.427L214.876 87.3745C214.89 87.3264 214.904 87.2782 214.917 87.2299C215.145 86.5589 215.304 85.8667 215.393 85.1638L216.261 81.2796L213.946 78.5111C213.372 77.5412 212.646 76.6694 211.796 75.9285C211.776 75.9077 211.755 75.8871 211.734 75.8665L204.17 66.7758L215.372 52.3132L212.148 47.4786C203.321 34.2349 187.997 27.4073 172.65 28.9666L156.838 10H83.4227ZM120.13 40.33C123.109 40.33 126.087 41.4909 128.419 43.8217L131.519 46.9208H134.495C140.308 49.7463 146.88 50.7693 152.87 47.7679L154.585 46.9208H160.062L191.438 84.5647L166.036 120.225C164.924 121.791 164.26 123.63 164.115 125.544C163.969 127.459 164.347 129.377 165.209 131.093L168.289 137.27C170.497 141.708 169.407 146.952 165.602 150.121L162.295 152.89C158.837 153.626 155.35 154.024 151.919 153.716C147.083 153.251 142.444 151.756 138.422 149.439C136.412 148.297 134.493 146.966 132.842 145.39C132.048 144.754 131.317 143.896 130.713 143.221V136.94C130.724 135.672 130.507 134.412 130.072 133.221L146.028 125.246C149.616 123.447 151.878 119.792 151.878 115.783L141.295 94.6264L173.042 84.0481L162.46 73.4698H141.295C137.708 75.2681 130.713 90.6173 130.713 94.6264L141.295 115.783L120.378 126.237C120.241 126.228 120.103 126.221 119.965 126.217C119.931 126.217 119.896 126.217 119.862 126.217L98.9656 115.783L109.548 94.6264C109.548 90.6173 102.553 75.2681 98.9656 73.4698H77.8008L67.2184 84.0481L98.9656 94.6264L88.3832 115.783C88.3832 119.792 90.645 123.447 94.2325 125.246L110.189 133.221C109.754 134.412 109.537 135.672 109.548 136.94V143.221C108.956 143.882 108.231 144.727 107.46 145.349C105.81 146.935 103.891 148.245 101.88 149.398C97.848 151.725 93.2299 153.24 88.3832 153.716C85.6851 153.958 82.9361 153.809 80.1984 153.406L76.2713 150.121C72.4658 146.952 71.376 141.708 73.5844 137.27L76.6847 131.093C77.5638 129.337 77.9365 127.371 77.7613 125.415C77.5861 123.459 76.8698 121.591 75.6926 120.019L48.9679 84.3994L80.9011 46.0737L88.7139 49.1108C96.5055 52.1292 105.405 50.2565 111.326 44.3382L111.842 43.8217C114.174 41.4909 117.152 40.33 120.13 40.33ZM120.13 161.051C123.471 163.29 127.137 165.277 130.734 166.567C134.541 168.005 138.481 168.922 142.453 169.418L120.937 187.331L99.255 169.253C102.763 168.713 106.24 167.822 109.61 166.547C113.17 165.264 116.816 163.27 120.13 161.051Z" fill="#88BFCF"/>
</svg>
