<svg width="240" height="240" viewBox="0 0 240 240" fill="none" xmlns="http://www.w3.org/2000/svg">
<g clip-path="url(#clip0_754_168)">
<path d="M101.84 117.7C102.13 128.3 107.87 141.04 121.4 152.32C133.17 162.12 153.53 170 170 170C175.623 170.001 181.226 169.33 186.69 168C188.736 167.501 190.887 167.661 192.837 168.457C194.786 169.252 196.435 170.643 197.548 172.431C198.661 174.219 199.181 176.312 199.034 178.413C198.887 180.514 198.081 182.514 196.73 184.13C180.717 203.313 158.096 215.798 133.33 219.12C132.297 219.267 131.245 219.219 130.23 218.98C108.84 213.7 84.9999 186.88 84.9999 160C84.9999 136.26 93.3999 123.55 101.84 117.7ZM94.7799 80.39C103.296 81.7429 111.037 86.1249 116.58 92.73C111.559 92.944 106.594 93.8803 101.84 95.51C81.7699 102.21 64.9999 123.88 64.9999 160C64.9999 185.37 76.9899 202.66 92.7099 216.23C52.8399 204.94 23.0899 169.56 20.2299 126.79C20.0698 124.459 20.8229 122.156 22.3299 120.37L24.0299 118.41L27.2699 114.83L29.9399 112.02L31.4299 110.48L34.7499 107.15L38.5299 103.46L40.6099 101.49C59.7099 83.46 79.6099 77.81 94.7799 80.39ZM120 20C167.6 20 207.42 53.25 217.52 97.79C221.12 113.64 216.39 126.04 209.25 134.67C203.672 141.309 196.472 146.394 188.35 149.43C178.7 152.84 167.85 152.7 159.23 151.19C151.53 149.84 141.93 147.24 137.2 140.47C135.857 138.551 135.231 136.221 135.43 133.887C135.629 131.554 136.641 129.364 138.29 127.7C143.14 122.8 145.38 117.75 145.71 113.23C145.824 111.418 145.672 109.598 145.26 107.83C139.44 81.63 121.4 64.62 98.1299 60.67C70.5299 55.98 44.3399 70.24 24.9799 88.75C38.0999 48.83 75.6799 20 120 20Z" fill="#88BFCF"/>
</g>
<defs>
<clipPath id="clip0_754_168">
<rect width="240" height="240" fill="white"/>
</clipPath>
</defs>
</svg>
