<svg width="240" height="240" viewBox="0 0 240 240" fill="none" xmlns="http://www.w3.org/2000/svg">
<g clip-path="url(#clip0_775_8)">
<path d="M239.99 18.61V8.03C238.934 8.03084 237.889 7.82274 236.914 7.41769C235.939 7.01265 235.054 6.41867 234.31 5.67C233.566 4.92531 232.977 4.04115 232.575 3.06818C232.173 2.09521 231.968 1.05257 231.97 0L221.37 0C221.226 2.03436 220.317 3.93865 218.825 5.32904C217.333 6.71944 215.369 7.49255 213.33 7.49255C211.291 7.49255 209.327 6.71944 207.835 5.32904C206.343 3.93865 205.434 2.03436 205.29 0L194.69 0C194.587 2.06298 193.695 4.00747 192.199 5.43118C190.702 6.85489 188.716 7.64888 186.65 7.64888C184.584 7.64888 182.598 6.85489 181.101 5.43118C179.605 4.00747 178.713 2.06298 178.61 0L168.02 0C167.911 2.13404 166.961 4.13786 165.377 5.57197C163.793 7.00607 161.704 7.75338 159.57 7.65C157.578 7.53961 155.697 6.69791 154.287 5.28623C152.877 3.87454 152.038 1.9922 151.93 0L141.33 0C141.205 2.04874 140.303 3.97255 138.808 5.37898C137.313 6.78541 135.338 7.5685 133.285 7.5685C131.232 7.5685 129.257 6.78541 127.762 5.37898C126.267 3.97255 125.365 2.04874 125.24 0L114.66 0C114.557 2.06298 113.665 4.00747 112.169 5.43118C110.672 6.85489 108.686 7.64888 106.62 7.64888C104.554 7.64888 102.568 6.85489 101.071 5.43118C99.5749 4.00747 98.6829 2.06298 98.58 0L87.98 0C87.9543 1.05236 87.7196 2.0891 87.2895 3.04992C86.8595 4.01074 86.2427 4.87646 85.475 5.5967C84.7073 6.31695 83.804 6.87735 82.8177 7.2453C81.8315 7.61325 80.7819 7.78141 79.73 7.74C77.6967 7.67288 75.7646 6.83647 74.3242 5.39976C72.8838 3.96305 72.0424 2.03315 71.97 0L61.37 0C61.2104 2.02155 60.2947 3.90866 58.8054 5.28497C57.3162 6.66129 55.3628 7.42567 53.335 7.42567C51.3072 7.42567 49.3538 6.66129 47.8646 5.28497C46.3753 3.90866 45.4596 2.02155 45.3 0L34.7 0C34.7 2.13101 33.8535 4.17475 32.3466 5.6816C30.8398 7.18846 28.796 8.035 26.665 8.035C24.534 8.035 22.4903 7.18846 20.9834 5.6816C19.4766 4.17475 18.63 2.13101 18.63 0L8.03001 0C8.02212 2.12553 7.17495 4.1619 5.6729 5.66583C4.17084 7.16975 2.13553 8.01947 0.0100098 8.03V18.6C2.09197 18.6735 4.06413 19.5522 5.51101 21.051C6.95789 22.5498 7.76651 24.5517 7.76651 26.635C7.76651 28.7183 6.95789 30.7202 5.51101 32.219C4.06413 33.7178 2.09197 34.5965 0.0100098 34.67V45.27C2.14102 45.27 4.18476 46.1165 5.69161 47.6234C7.19847 49.1303 8.04501 51.174 8.04501 53.305C8.04501 55.436 7.19847 57.4797 5.69161 58.9866C4.18476 60.4935 2.14102 61.34 0.0100098 61.34V71.93C2.07299 72.0329 4.01748 72.9249 5.44119 74.4214C6.8649 75.9179 7.65889 77.9045 7.65889 79.97C7.65889 82.0356 6.8649 84.0221 5.44119 85.5186C4.01748 87.0151 2.07299 87.9071 0.0100098 88.01V98.61C2.14102 98.61 4.18476 99.4565 5.69161 100.963C7.19847 102.47 8.04501 104.514 8.04501 106.645C8.04501 108.776 7.19847 110.82 5.69161 112.327C4.18476 113.833 2.14102 114.68 0.0100098 114.68V125.28C2.1397 125.28 4.18216 126.126 5.68808 127.632C7.19399 129.138 8.04001 131.18 8.04001 133.31C8.04001 135.44 7.19399 137.482 5.68808 138.988C4.18216 140.494 2.1397 141.34 0.0100098 141.34V151.94C2.14235 151.94 4.18736 152.787 5.69515 154.295C7.20294 155.803 8.05001 157.848 8.05001 159.98C8.05001 162.112 7.20294 164.157 5.69515 165.665C4.18736 167.173 2.14235 168.02 0.0100098 168.02V178.62C4.45001 178.79 7.91001 182.5 7.75001 186.92C7.68746 188.954 6.85222 190.888 5.41429 192.327C3.97636 193.767 2.04382 194.605 0.0100098 194.67V205.28C2.14235 205.28 4.18736 206.127 5.69515 207.635C7.20294 209.143 8.05001 211.188 8.05001 213.32C8.05001 215.452 7.20294 217.497 5.69515 219.005C4.18736 220.513 2.14235 221.36 0.0100098 221.36V231.96C2.1398 231.965 4.18071 232.814 5.68577 234.321C7.19083 235.828 8.03737 237.87 8.04001 240H18.64C18.7996 237.978 19.7153 236.091 21.2046 234.715C22.6938 233.339 24.6472 232.574 26.675 232.574C28.7028 232.574 30.6562 233.339 32.1454 234.715C33.6347 236.091 34.5504 237.978 34.71 240H45.31C45.4536 237.966 46.363 236.061 47.855 234.671C49.347 233.281 51.3106 232.507 53.35 232.507C55.3894 232.507 57.353 233.281 58.845 234.671C60.337 236.061 61.2464 237.966 61.39 240H71.98C72.1052 237.951 73.0073 236.027 74.5022 234.621C75.9972 233.215 77.9724 232.432 80.025 232.432C82.0776 232.432 84.0528 233.215 85.5478 234.621C87.0428 236.027 87.9448 237.951 88.07 240H98.67C98.7435 237.918 99.6222 235.946 101.121 234.499C102.62 233.052 104.622 232.243 106.705 232.243C108.788 232.243 110.79 233.052 112.289 234.499C113.788 235.946 114.667 237.918 114.74 240H125.34C125.5 237.978 126.415 236.091 127.905 234.715C129.394 233.339 131.347 232.574 133.375 232.574C135.403 232.574 137.356 233.339 138.845 234.715C140.335 236.091 141.25 237.978 141.41 240H152C152.144 237.963 153.054 236.056 154.548 234.664C156.042 233.272 158.008 232.498 160.05 232.498C162.092 232.498 164.058 233.272 165.552 234.664C167.046 236.056 167.956 237.963 168.1 240H178.68C178.824 237.963 179.734 236.056 181.228 234.664C182.722 233.272 184.688 232.498 186.73 232.498C188.772 232.498 190.738 233.272 192.232 234.664C193.726 236.056 194.636 237.963 194.78 240H205.37C205.473 237.94 206.364 235.998 207.858 234.576C209.353 233.154 211.337 232.361 213.4 232.361C215.463 232.361 217.447 233.154 218.942 234.576C220.436 235.998 221.327 237.94 221.43 240H231.97C231.97 237.9 232.83 235.82 234.32 234.32C235.065 233.576 235.949 232.987 236.922 232.585C237.895 232.183 238.937 231.978 239.99 231.98V221.38C237.958 221.237 236.056 220.328 234.668 218.838C233.279 217.348 232.507 215.387 232.507 213.35C232.507 211.313 233.279 209.352 234.668 207.862C236.056 206.372 237.958 205.463 239.99 205.32V194.72C237.927 194.617 235.983 193.725 234.559 192.229C233.135 190.732 232.341 188.746 232.341 186.68C232.341 184.614 233.135 182.628 234.559 181.131C235.983 179.635 237.927 178.743 239.99 178.64V168.04C237.956 167.896 236.051 166.987 234.661 165.495C233.271 164.003 232.497 162.039 232.497 160C232.497 157.961 233.271 155.997 234.661 154.505C236.051 153.013 237.956 152.104 239.99 151.96V141.35C237.858 141.35 235.813 140.503 234.305 138.995C232.797 137.487 231.95 135.442 231.95 133.31C231.95 131.178 232.797 129.133 234.305 127.625C235.813 126.117 237.858 125.27 239.99 125.27V114.7C237.956 114.556 236.051 113.647 234.661 112.155C233.271 110.663 232.497 108.699 232.497 106.66C232.497 104.621 233.271 102.657 234.661 101.165C236.051 99.673 237.956 98.7636 239.99 98.62V88.02C237.908 87.9465 235.936 87.0678 234.489 85.569C233.042 84.0702 232.234 82.0683 232.234 79.985C232.234 77.9017 233.042 75.8998 234.489 74.401C235.936 72.9022 237.908 72.0235 239.99 71.95V61.35C237.958 61.2065 236.056 60.2982 234.668 58.8081C233.279 57.3179 232.507 55.3568 232.507 53.32C232.507 51.2832 233.279 49.3221 234.668 47.832C236.056 46.3418 237.958 45.4335 239.99 45.29V34.69C237.956 34.5464 236.051 33.637 234.661 32.145C233.271 30.653 232.497 28.6894 232.497 26.65C232.497 24.6106 233.271 22.647 234.661 21.155C236.051 19.663 237.956 18.7536 239.99 18.61ZM199.32 116.97L135.3 179.2C141.1 180.1 146.7 181.45 152.72 181.45C167.36 181.45 184.19 177 195.57 172.29L189.73 199.74C172.98 207.79 162.73 208.44 152.72 208.44C141.77 208.44 131.28 204.88 120.57 204.88C114.55 204.88 105.84 205.33 100.49 208.88L88.89 188.36L154.93 122.96H78.93L64.43 191.02H32.73L65.77 35.28H170.64L163.94 66.73H90.97L84.73 95.97H204.46L199.32 116.97Z" fill="#88BFCF"/>
</g>
<defs>
<clipPath id="clip0_775_8">
<rect width="240" height="240" fill="white"/>
</clipPath>
</defs>
</svg>
