<svg width="240" height="240" viewBox="0 0 240 240" fill="none" xmlns="http://www.w3.org/2000/svg">
<path d="M68.5 67.4C68.6 67.4 68.6 67.4 68.5 67.4ZM212.8 86C208.5 75.5 199.6 64.2 192.7 60.6C198.3 71.7 201.6 82.8 202.9 91V91.2C191.6 63 172.4 51.6 156.7 26.8C155.9 25.6 155 24.3 154.3 23C153.9 22.3 153.6 21.6 153.2 20.9C152.6 19.6 152 18.3 151.7 16.9C151.7 16.8 151.6 16.7 151.5 16.7H151.2C129 29.7 119.7 52.6 117.4 67.1C110.5 67.5 103.7 69.2 97.5 72.2C96.3 72.7 95.8 74.1 96.2 75.3C96.7 76.7 98.3 77.4 99.6 76.8C105 74.2 111 72.7 117 72.3H117.5C118.3 72.2 119.2 72.2 120 72.2C125 72.1 129.7 72.8 134.4 74.2L135 74.4C136 74.6 136.7 75 137.5 75C138 75.4 138.6 75.6 139.1 75.8L140.5 76.4C141.2 76.7 141.9 77 142.5 77.3C142.8 77.5 143.1 77.6 143.4 77.8C144.1 78.2 145 78.5 145.4 78.9C145.8 79.1 146.2 79.4 146.6 79.6C153.9 84.1 160 90.3 164.1 97.7C158.8 94 149.2 90.3 140 91.9C176 110 166.3 171.9 116.4 169.5C112 169.4 107.6 168.5 103.4 167C102.4 166.7 101.4 166.3 100.5 165.8C100 165.6 99.3 165.3 98.8 165C86.5 158.7 76.4 146.8 75 132.3C75 132.3 80 115 108.3 115C111.4 115 120 106.4 120.3 104C120.3 103.1 102.9 96.2 96.1 89.5C92.4 85.9 90.7 84.2 89.2 82.9C88.4 82.2 87.5 81.6 86.6 81C84.3017 73.0085 84.1981 64.5454 86.3 56.5C76 61.2 68 68.6 62.2 75C58.2 70 58.5 53.5 58.7 50C58.6 50 55.7 51.6 55.4 51.8C51.9 54.3 48.6 57.1 45.6 60C42.1 63.7 39 67.4 36.2 71.4C30 80.5 25 90.9 22.8 101.8C22.8 101.9 21.8 105.9 21.1 111L20.8 113.3C20.6 115 20.4 116.5 20 119.1V123.2C20 178.5 65 223.3 120 223.3C169.7 223.3 210.8 187.4 218.8 140C219 138.9 219.1 137.6 219.3 136.3C221.3 119.1 219.1 101.1 212.8 86Z" fill="#88BFCF"/>
</svg>
