<svg width="240" height="240" viewBox="0 0 240 240" fill="none" xmlns="http://www.w3.org/2000/svg">
<g clip-path="url(#clip0_775_10)">
<path d="M69.28 167.38V239.71H83.42V167.38H69.28ZM178.4 167.38V239.71H192.54V167.38H178.4ZM200.19 167.38V239.71H214.33V167.38H200.19ZM156.53 167.38V239.71H170.67V167.38H156.53ZM25.64 167.38V239.71H39.79V167.38H25.64ZM47.47 167.38V239.71H61.61V167.38H47.47ZM240 167.71L239.8 239.49L218.2 239.41V226.84H226.47V179.39H218.33V167.6L240 167.71ZM0 167.62L0.2 239.4L21.8 239.32V226.75H13.53V179.31H21.67V167.51L0 167.62ZM69.28 84.06V156.39H83.42V84.06H69.28ZM91.1 84.06V156.39H105.24V84.06H91.1ZM112.91 84.06V156.39H127.05V84.06H112.91ZM156.53 84.06V156.39H170.67V84.06H156.53ZM178.4 84.06V156.39H192.54V84.06H178.4ZM200.19 84.06V156.39H214.33V84.06H200.19ZM25.64 84.06V156.39H39.79V84.06H25.64ZM47.47 84.06V156.39H61.61V84.06H47.47ZM134.73 84.06V156.39H148.88V84.06H134.73ZM240 84.33L239.8 156.11L218.2 156.03V143.46H226.47V96.01H218.33V84.22L240 84.33ZM0 84.3L0.2 156.08L21.8 156V143.43H13.53V95.99H21.67V84.19L0 84.3ZM69.28 0.290009V72.62H83.42V0.290009H69.28ZM156.53 0.290009V72.62H170.67V0.290009H156.53ZM200.19 0.290009V72.62H214.33V0.290009H200.19ZM178.4 0.290009V72.62H192.54V0.290009H178.4ZM25.64 0.290009V72.62H39.79V0.290009H25.64ZM47.47 0.290009V72.62H61.61V0.290009H47.47ZM240 0.550009L239.8 72.33L218.2 72.24V59.67H226.47V12.23H218.33V0.440009L240 0.550009ZM0 0.520009L0.2 72.3L21.8 72.22V59.65H13.53V12.21H21.67V0.410009L0 0.520009Z" fill="#88BFCF"/>
</g>
<defs>
<clipPath id="clip0_775_10">
<rect width="240" height="240" fill="white"/>
</clipPath>
</defs>
</svg>
