<svg width="240" height="240" viewBox="0 0 240 240" fill="none" xmlns="http://www.w3.org/2000/svg">
<g clip-path="url(#clip0_775_4)">
<path d="M125.31 5.31C121.768 2.13443 117.25 0.261382 112.5 0L22.5 0C18.375 0 15 3.375 15 7.5V232.5C15 236.625 18.375 240 22.5 240H202.5C206.625 240 210 236.625 210 232.5V97.5C210 93.375 207.615 87.615 204.69 84.69L125.295 5.295L125.31 5.31ZM195 225H30V15H112.305C113.203 15.2047 114.06 15.5597 114.84 16.05L193.95 95.16C194.44 95.9398 194.795 96.7969 195 97.695V225ZM202.5 0H157.5C153.375 0 152.385 2.385 155.31 5.31L204.705 54.705C207.615 57.615 210.015 56.64 210.015 52.515V7.515C210.015 3.39 206.64 0.015 202.515 0.015L202.5 0Z" fill="#88BFCF"/>
</g>
<defs>
<clipPath id="clip0_775_4">
<rect width="240" height="240" fill="white"/>
</clipPath>
</defs>
</svg>
