<svg width="240" height="240" viewBox="0 0 240 240" fill="none" xmlns="http://www.w3.org/2000/svg">
<path d="M40 200C34.5 200 29.7933 198.043 25.88 194.13C21.9667 190.217 20.0067 185.507 20 180V60C20 54.5 21.96 49.7933 25.88 45.88C29.8 41.9667 34.5067 40.0067 40 40H200C205.5 40 210.21 41.96 214.13 45.88C218.05 49.8 220.007 54.5067 220 60V180C220 185.5 218.043 190.21 214.13 194.13C210.217 198.05 205.507 200.007 200 200H40ZM40 180H200V80H40V180ZM75 170L61 156L86.75 130L60.75 104L75 90L115 130L75 170ZM120 170V150H180V170H120Z" fill="#88BFCF"/>
</svg>
