<svg width="240" height="240" viewBox="0 0 240 240" fill="none" xmlns="http://www.w3.org/2000/svg">
<path d="M120.765 29.985H122.1C134.43 30.03 196.905 30.48 213.75 35.01C218.842 36.3925 223.483 39.0873 227.207 42.8251C230.932 46.5629 233.61 51.2127 234.975 56.31C236.49 62.01 237.555 69.555 238.275 77.34L238.425 78.9L238.755 82.8L238.875 84.36C239.85 98.07 239.97 110.91 239.985 113.715V114.84C239.97 117.75 239.835 131.46 238.755 145.74L238.635 147.315L238.5 148.875C237.75 157.455 236.64 165.975 234.975 172.245C233.61 177.342 230.932 181.992 227.207 185.73C223.483 189.468 218.842 192.162 213.75 193.545C196.35 198.225 130.215 198.555 121.05 198.57H118.92C114.285 198.57 95.115 198.48 75.015 197.79L72.465 197.7L71.16 197.64L68.595 197.535L66.03 197.43C49.38 196.695 33.525 195.51 26.22 193.53C21.1294 192.149 16.4902 189.456 12.7658 185.721C9.04129 181.986 6.36185 177.339 4.995 172.245C3.33 165.99 2.22 157.455 1.47 148.875L1.35 147.3L1.23 145.74C0.485451 135.576 0.0752298 125.391 0 115.2L0 113.355C0.03 110.13 0.15 98.985 0.96 86.685L1.065 85.14L1.11 84.36L1.23 82.8L1.56 78.9L1.71 77.34C2.43 69.555 3.495 61.995 5.01 56.31C6.37456 51.2127 9.05298 46.5629 12.7776 42.8251C16.5022 39.0873 21.1426 36.3925 26.235 35.01C33.54 33.06 49.395 31.86 66.045 31.11L68.595 31.005L71.175 30.915L72.465 30.87L75.03 30.765C89.3056 30.306 103.587 30.051 117.87 30L120.765 29.985ZM96 78.135V150.405L158.355 114.285L96 78.135Z" fill="#88BFCF"/>
</svg>
